<?xml version="1.0" standalone="no"?>
<!DOCTYPE svg PUBLIC "-//W3C//DTD SVG 20010904//EN"
 "http://www.w3.org/TR/2001/REC-SVG-20010904/DTD/svg10.dtd">
<svg version="1.0" xmlns="http://www.w3.org/2000/svg"
 width="1600.000000pt" height="1200.000000pt" viewBox="0 0 1600.000000 1200.000000"
 preserveAspectRatio="xMidYMid meet">

<g transform="translate(0.000000,1200.000000) scale(0.100000,-0.100000)"
fill="#000000" stroke="none">
<path d="M11413 11533 c-11 -21 -45 -86 -77 -145 -57 -106 -57 -107 -77 -87
-27 27 -66 24 -99 -9 -20 -20 -38 -61 -64 -144 -20 -64 -39 -130 -42 -147 l-6
-30 122 4 122 4 3 41 c3 42 39 110 58 110 5 0 34 -13 64 -30 29 -16 57 -30 62
-30 4 0 11 19 15 43 15 96 132 287 176 287 31 0 31 15 2 53 -37 50 -87 85
-146 102 -77 23 -91 20 -113 -22z m63 -1 c18 -11 -146 -362 -169 -362 -10 0
-20 6 -23 14 -6 16 56 153 116 256 24 41 43 80 43 87 0 14 16 17 33 5z m-270
-263 c-36 -28 -45 -55 -60 -169 -11 -86 -14 -95 -34 -98 -12 -2 -22 0 -22 5 0
4 16 60 35 123 34 111 63 160 93 160 9 0 4 -8 -12 -21z"/>
<path d="M12140 11131 c-117 -36 -203 -120 -241 -235 -15 -47 -19 -51 -56 -59
-51 -10 -73 -34 -80 -86 -7 -52 2 -88 27 -101 27 -15 39 14 16 39 -20 22 -21
60 -1 88 11 15 28 23 58 25 l42 3 23 72 c39 123 143 213 264 229 31 4 48 11
48 20 0 15 -57 18 -100 5z"/>
<path d="M12112 10950 c-77 -18 -152 -98 -168 -178 -10 -49 20 -42 35 8 23 78
95 135 187 148 25 4 46 12 47 17 3 13 -58 16 -101 5z"/>
<path d="M8231 10783 c-39 -147 -48 -455 -18 -618 33 -179 106 -390 128 -368
7 7 -3 47 -30 127 -64 185 -85 311 -85 506 0 116 5 193 18 260 23 122 23 122
9 127 -7 3 -16 -12 -22 -34z"/>
<path d="M10975 10341 c-56 -25 -178 -161 -215 -238 l-30 -63 -32 20 c-46 28
-76 26 -88 -6 -13 -34 -13 -131 1 -139 17 -11 24 4 24 57 0 66 19 81 63 50 16
-12 34 -22 39 -22 5 0 23 28 39 62 48 103 155 225 222 254 17 8 32 21 32 29 0
19 -6 19 -55 -4z"/>
<path d="M9685 10320 c-12 -20 -18 -110 -7 -110 16 0 20 10 28 68 4 35 3 52
-4 52 -6 0 -14 -4 -17 -10z"/>
<path d="M11335 10308 c-97 -34 -188 -75 -259 -117 -45 -27 -105 -56 -134 -66
-39 -12 -59 -26 -73 -49 -23 -38 -26 -116 -4 -116 11 0 15 11 15 40 0 50 30
84 86 99 22 6 53 20 69 31 53 37 202 109 277 134 40 14 73 30 73 37 0 17 -15
19 -50 7z"/>
<path d="M9485 10233 c10 -42 35 -77 46 -66 14 14 -19 93 -38 93 -12 0 -14 -7
-8 -27z"/>
<path d="M9803 10189 c-32 -20 -45 -49 -22 -49 17 0 79 52 73 61 -8 13 -15 11
-51 -12z"/>
<path d="M9571 10104 c-12 -15 -21 -35 -21 -45 0 -80 92 -111 135 -45 49 75
-59 160 -114 90z"/>
<path d="M9340 10085 c0 -13 9 -16 43 -13 23 2 42 8 42 13 0 6 -19 11 -42 13
-34 3 -43 0 -43 -13z"/>
<path d="M9830 10050 c0 -12 59 -50 78 -50 23 0 12 25 -19 43 -34 19 -59 22
-59 7z"/>
<path d="M6725 10031 c-50 -23 -109 -84 -130 -133 -21 -52 -19 -153 4 -205 18
-38 18 -43 4 -55 -25 -20 -53 -89 -53 -131 -1 -196 261 -270 365 -103 23 39
29 60 30 107 1 56 3 61 37 89 182 151 79 451 -156 450 -38 0 -76 -7 -101 -19z"/>
<path d="M9393 9953 c-43 -24 -51 -37 -34 -47 13 -9 101 44 101 60 0 19 -18
16 -67 -13z"/>
<path d="M7920 9878 c0 -10 14 -18 41 -22 61 -10 111 -39 162 -96 25 -27 50
-50 56 -50 41 0 -43 102 -117 143 -61 33 -142 47 -142 25z"/>
<path d="M9535 9861 c-32 -5 -41 -11 -43 -28 -3 -18 -10 -23 -35 -23 -45 0
-75 -24 -87 -68 l-10 -38 -125 -17 c-149 -21 -283 -47 -458 -89 -154 -36 -136
-11 -208 -295 -80 -317 -145 -699 -164 -968 l-7 -90 168 -123 168 -124 1117 9
c809 6 1121 11 1129 19 7 7 56 269 111 584 l100 572 -174 181 c-95 100 -204
214 -243 254 l-69 72 -165 17 c-91 9 -286 19 -435 23 l-270 6 -11 35 c-9 26
-19 36 -43 42 -17 5 -31 15 -31 23 0 8 -9 19 -19 25 -21 11 -128 11 -196 1z
m685 -151 c107 -6 255 -17 328 -25 74 -8 136 -15 138 -15 2 0 4 -57 4 -127 0
-348 -90 -820 -221 -1164 l-30 -78 -109 -25 c-332 -78 -566 -107 -923 -113
-351 -7 -595 13 -902 72 -44 8 -81 15 -82 15 -8 0 -1 104 17 255 36 301 96
612 176 900 44 159 21 141 234 190 439 101 898 139 1370 115z"/>
<path d="M9660 9629 c-349 -26 -926 -127 -957 -167 -28 -38 -96 -294 -132
-505 -39 -221 -76 -557 -65 -575 17 -27 150 -90 228 -107 133 -30 272 -35 570
-20 407 21 693 49 832 80 72 17 165 56 192 82 63 60 284 1034 258 1136 -8 32
-57 59 -134 76 -62 13 -615 13 -792 0z m826 -42 c76 -25 79 -32 65 -135 -34
-247 -130 -668 -206 -908 -39 -123 -32 -116 -158 -160 -122 -42 -409 -74 -884
-99 -394 -20 -528 -7 -691 70 -40 19 -75 41 -78 49 -7 18 41 394 72 566 27
146 72 332 102 420 l19 55 69 18 c121 31 423 85 594 106 265 34 376 39 720 37
273 -2 333 -5 376 -19z"/>
<path d="M10423 9513 c-26 -20 -77 -61 -111 -92 -53 -46 -65 -52 -73 -39 -18
32 -121 158 -129 158 -25 0 -17 -26 23 -73 24 -28 56 -70 70 -92 l27 -39 -29
-31 c-40 -41 -111 -145 -111 -162 0 -27 19 -10 81 72 35 46 67 85 71 85 11 0
37 -54 69 -140 16 -46 33 -76 43 -78 9 -2 16 1 16 7 0 14 -55 153 -81 203
l-21 40 39 40 c21 22 71 64 111 95 39 31 72 59 72 64 0 22 -23 16 -67 -18z"/>
<path d="M8978 9381 l-75 -70 -49 50 c-42 43 -84 64 -84 42 0 -4 25 -33 56
-64 l57 -57 -35 -44 c-55 -68 -118 -165 -118 -182 0 -30 19 -16 53 37 19 28
53 76 77 106 l42 53 28 -42 c16 -24 36 -62 45 -86 15 -40 45 -61 45 -31 0 14
-50 118 -77 160 l-18 28 78 75 c68 65 85 94 58 94 -4 0 -41 -31 -83 -69z"/>
<path d="M10015 8948 c-20 -58 -55 -197 -55 -216 0 -12 12 -35 26 -49 24 -24
31 -25 94 -21 l68 5 -9 -26 c-15 -46 -39 -200 -33 -216 9 -23 33 -18 39 8 3
12 17 78 31 147 14 69 33 143 41 165 27 71 42 135 36 150 -11 30 -31 13 -58
-51 -35 -82 -69 -124 -101 -124 -33 0 -48 33 -39 89 17 116 17 118 0 134 -20
20 -34 22 -40 5z"/>
<path d="M9413 8859 c-93 -46 -156 -156 -161 -284 -3 -72 0 -86 25 -135 26
-50 32 -55 81 -68 120 -33 209 39 247 200 19 82 19 191 0 227 -40 77 -112 100
-192 60z m127 -86 c19 -24 21 -37 17 -93 -7 -93 -33 -165 -74 -211 -43 -47
-71 -56 -112 -35 -63 33 -82 130 -43 219 57 128 160 186 212 120z"/>
<path d="M8717 8767 c-22 -59 -26 -78 -18 -100 19 -48 89 -75 150 -57 19 5 36
9 37 7 2 -1 -11 -47 -27 -101 -16 -54 -29 -107 -29 -117 0 -24 19 -34 35 -18
22 24 138 342 143 392 4 43 3 47 -17 47 -15 0 -27 -12 -41 -44 -41 -85 -122
-134 -160 -96 -18 18 -18 22 -5 61 25 70 17 99 -28 99 -7 0 -25 -33 -40 -73z"/>
<path d="M10357 8412 c-33 -37 -11 -92 37 -92 26 0 56 29 56 53 0 23 -35 57
-58 57 -11 0 -26 -8 -35 -18z m52 -48 c-15 -18 -28 -18 -36 2 -8 20 17 36 34
22 10 -8 10 -14 2 -24z"/>
<path d="M7263 9540 c-40 -24 -53 -48 -53 -98 0 -129 183 -151 219 -26 12 43
-8 94 -48 121 -42 28 -76 29 -118 3z"/>
<path d="M7840 9495 c-54 -17 -152 -75 -158 -92 -7 -22 25 -14 75 17 98 62
226 77 344 40 34 -10 66 -17 71 -14 65 40 -227 83 -332 49z"/>
<path d="M7077 9339 c-29 -17 -50 -68 -43 -107 10 -64 64 -97 121 -76 23 9 45
57 45 99 0 66 -71 114 -123 84z"/>
<path d="M6170 9169 c-30 -11 -65 -17 -77 -14 -15 3 -30 -2 -43 -15 -23 -23
-57 -25 -84 -5 -34 26 -81 19 -111 -16 -26 -31 -30 -69 -9 -76 6 -2 15 11 20
29 14 47 54 59 94 30 36 -27 71 -28 95 -2 12 13 31 20 56 20 21 0 57 10 79 21
36 19 46 20 79 10 49 -14 51 -14 51 3 0 14 -49 36 -79 36 -9 -1 -41 -10 -71
-21z"/>
<path d="M5945 8939 c-11 -6 -30 -23 -42 -37 l-21 -25 -27 22 c-37 29 -72 26
-124 -9 -33 -21 -48 -26 -58 -19 -19 17 -35 1 -23 -22 16 -28 57 -24 97 11 18
17 38 30 43 30 26 0 62 -23 70 -46 12 -32 22 -29 52 16 37 54 62 62 120 39 61
-24 80 -24 108 -1 30 24 18 48 -13 27 -20 -13 -30 -12 -86 5 -72 23 -70 23
-96 9z"/>
<path d="M11574 8455 c-95 -21 -213 -91 -214 -127 0 -24 3 -23 57 18 55 42
116 70 170 79 73 12 83 15 83 30 0 18 -15 18 -96 0z"/>
<path d="M11502 8304 c-65 -17 -111 -40 -119 -60 -10 -26 3 -25 72 8 74 34
159 42 259 24 40 -7 48 -6 44 5 -11 35 -163 48 -256 23z"/>
<path d="M6827 7927 c-39 -36 -62 -102 -52 -148 9 -41 50 -86 90 -99 45 -15
125 10 155 47 45 57 33 150 -25 202 -30 26 -44 31 -85 31 -41 0 -54 -5 -83
-33z m148 -21 c67 -67 40 -186 -42 -188 -68 -2 -133 69 -118 129 18 74 111
108 160 59z"/>
<path d="M6882 7884 c-38 -26 -21 -109 26 -121 28 -7 57 18 67 59 5 21 1 33
-19 52 -29 30 -43 32 -74 10z m56 -57 c-4 -39 -21 -44 -38 -13 -10 20 -10 28
-1 40 20 24 43 8 39 -27z"/>
<path d="M8855 7919 c-301 -17 -838 -72 -865 -89 -17 -11 -209 -829 -311
-1325 l-22 -110 -138 -206 c-364 -544 -930 -1232 -1169 -1421 l-45 -36 -165
-11 c-374 -27 -514 -66 -482 -136 12 -26 79 -64 150 -85 23 -7 42 -16 42 -19
0 -3 -24 -19 -53 -34 -28 -16 -121 -70 -205 -120 -170 -101 -236 -154 -226
-182 10 -24 79 -15 219 30 61 19 113 35 117 35 4 0 -40 -46 -98 -102 -106
-103 -164 -177 -164 -209 0 -10 9 -23 21 -29 35 -19 122 8 322 99 38 17 70 31
72 31 1 0 -3 -18 -9 -40 -14 -56 -1 -75 51 -74 84 1 262 107 399 237 99 93
170 187 228 299 42 82 45 84 168 173 209 150 323 249 541 466 156 155 207 201
202 181 -24 -115 -121 -728 -115 -732 9 -6 220 -504 220 -519 0 -5 -114 -78
-252 -162 -139 -84 -763 -467 -1386 -852 -624 -384 -1135 -697 -1137 -695 -1
1 -15 28 -30 58 -50 100 -137 224 -204 291 -122 121 -306 229 -392 229 -166 0
-159 -261 21 -815 134 -413 240 -544 443 -548 92 -2 156 16 207 60 54 47 78
98 92 194 l12 79 156 91 c891 523 1969 1208 2804 1782 l188 129 442 -41 c242
-23 455 -45 473 -49 l32 -7 -132 -105 c-204 -163 -585 -475 -1552 -1269 -489
-402 -893 -731 -896 -731 -4 0 -33 42 -65 93 -98 154 -246 286 -412 367 -115
56 -178 45 -214 -37 -38 -86 -15 -295 62 -558 169 -581 277 -735 513 -735 91
0 136 13 189 53 58 44 86 104 101 214 l12 92 195 152 c864 672 1805 1466 2628
2218 112 102 209 187 215 188 7 1 185 -15 397 -36 212 -21 386 -37 387 -37 1
1 100 453 220 1004 159 734 220 996 225 975 4 -15 35 -163 68 -328 97 -473
295 -1228 385 -1470 50 -133 98 -227 139 -273 29 -32 36 -49 45 -116 37 -264
143 -485 323 -668 l81 -83 8 30 c4 17 12 90 16 163 l8 132 70 -51 c131 -95
336 -181 440 -183 58 -1 60 0 63 26 3 22 -9 39 -65 94 -37 37 -60 64 -50 61
82 -29 280 -33 370 -7 38 11 39 11 32 53 -16 94 -62 153 -209 264 l-68 52 113
-2 c110 -2 114 -1 117 20 3 18 -8 27 -60 51 -110 52 -441 163 -783 263 l-140
41 -22 66 c-11 37 -53 160 -91 273 -200 586 -347 1229 -427 1874 -14 116 -43
336 -64 490 -59 420 -58 400 -13 605 43 190 43 201 8 367 -39 185 -92 289
-201 399 l-80 81 -190 26 c-480 68 -750 87 -1270 92 -231 2 -492 -1 -580 -6z
m1215 -43 c293 -25 798 -87 805 -99 1 -1 -40 -141 -92 -312 -258 -858 -528
-1831 -774 -2787 -61 -238 -114 -436 -117 -440 -4 -4 -127 -12 -274 -19 -697
-32 -1430 61 -2115 268 -127 38 -153 49 -153 65 0 64 170 1010 286 1587 121
608 353 1644 372 1663 16 15 511 69 817 88 222 13 1029 5 1245 -14z m965 -580
c35 -35 45 -84 55 -276 18 -314 31 -461 61 -664 16 -111 43 -311 59 -446 17
-135 42 -312 55 -395 13 -82 23 -150 22 -151 -1 -1 -27 4 -57 12 -30 8 -62 14
-70 14 -39 0 -123 -33 -154 -60 l-34 -30 -23 120 -23 120 24 25 c38 40 105 67
173 70 64 2 87 20 42 31 -60 15 -174 -17 -227 -64 -21 -18 -22 -16 -38 83 -6
39 -13 82 -16 96 -6 33 32 82 88 110 49 25 134 27 177 4 31 -15 51 -13 51 5 0
15 -36 30 -95 41 -69 13 -143 -6 -195 -50 l-35 -29 -11 87 c-11 86 -11 86 15
114 47 52 97 71 189 73 46 1 86 5 90 8 27 27 -129 35 -199 11 -23 -9 -58 -27
-76 -41 -19 -14 -35 -24 -37 -23 -9 12 -31 179 -23 179 5 0 27 15 48 34 51 43
112 60 189 53 45 -4 60 -2 60 8 0 19 -24 25 -98 25 -75 0 -139 -24 -184 -67
l-27 -26 -5 24 c-3 13 -10 47 -15 74 l-11 50 45 42 c55 51 127 72 190 54 40
-11 63 -3 51 18 -9 15 -89 24 -140 17 -24 -4 -68 -22 -99 -40 l-54 -33 -16 95
-16 94 37 40 c67 73 155 99 250 75 30 -8 33 -7 30 9 -7 37 -119 45 -201 14
-30 -11 -70 -36 -90 -55 l-35 -34 -7 95 c-10 123 -3 166 30 206 75 89 156 107
249 55 27 -15 51 -25 54 -23 13 13 -13 39 -60 61 -70 33 -131 33 -192 0 l-46
-25 16 32 c40 77 163 178 217 178 10 0 29 -11 42 -24z m-3467 -1338 c-37 -189
-80 -407 -95 -486 l-27 -143 -141 -148 c-193 -205 -472 -461 -501 -461 -7 0
-15 21 -19 47 -12 80 -45 154 -92 205 l-45 47 128 148 c70 81 129 150 131 152
7 10 55 -33 84 -75 35 -51 69 -148 69 -195 0 -20 5 -29 16 -29 14 0 16 9 11
59 -7 77 -44 158 -101 219 -25 27 -46 52 -46 56 0 9 92 120 104 125 16 7 79
-64 103 -116 15 -33 28 -88 35 -148 8 -68 15 -95 24 -95 32 0 7 185 -37 273
-12 23 -39 61 -61 83 l-40 42 99 128 c55 71 114 150 133 176 27 39 36 45 51
38 21 -12 58 -70 68 -107 9 -35 31 -42 31 -9 0 38 -16 71 -56 116 l-37 40 38
53 c20 28 82 118 136 200 55 81 101 147 103 147 1 0 -28 -154 -66 -342z m3692
-628 c35 -18 40 -25 50 -77 7 -32 18 -86 25 -120 7 -35 11 -63 8 -63 -2 0 -13
5 -24 10 -10 6 -43 11 -73 11 -57 1 -139 -32 -183 -73 -27 -25 -24 -31 -53
107 -12 55 -23 106 -25 112 -6 18 42 71 84 93 49 26 139 26 191 0z m73 -282
c10 -1 20 -11 22 -23 36 -158 43 -190 41 -193 -2 -1 -16 3 -32 9 -47 18 -144
16 -183 -5 -52 -27 -84 -66 -69 -83 9 -12 18 -8 49 23 33 32 46 38 94 42 55 4
140 -12 151 -30 5 -7 54 -195 54 -205 0 -1 -16 5 -35 13 -77 32 -185 7 -237
-55 -15 -17 -29 -28 -31 -24 -2 5 -28 105 -57 223 l-53 214 39 34 c63 56 110
74 174 67 30 -3 63 -6 73 -7z m-4628 -142 c14 -24 34 -82 44 -130 l19 -87 -71
-53 c-149 -108 -135 -102 -174 -81 -46 25 -91 78 -121 143 l-25 55 39 34 c80
69 81 70 115 37 39 -37 74 -97 89 -151 7 -28 16 -43 27 -43 12 0 14 7 9 33
-10 53 -62 150 -101 187 l-35 34 52 53 51 52 29 -20 c15 -11 39 -40 53 -63z
m-355 -231 c16 -48 92 -130 140 -149 22 -9 40 -19 40 -23 0 -19 -87 -165 -137
-230 -99 -130 -246 -250 -397 -324 -93 -46 -126 -50 -126 -16 1 51 48 104 166
189 42 30 57 58 32 58 -7 0 -48 -28 -91 -61 -96 -74 -395 -219 -453 -219 -24
0 101 87 289 202 140 86 167 108 131 108 -20 0 -232 -127 -361 -217 -51 -35
-93 -62 -93 -59 0 17 118 141 236 246 76 68 129 120 118 116 -60 -25 -375
-126 -409 -132 l-40 -7 30 25 c46 39 164 112 344 214 158 89 164 94 137 104
-15 5 -32 10 -37 10 -23 0 -158 62 -174 80 -16 18 -15 19 12 33 58 31 226 56
508 76 61 5 113 9 117 10 3 0 12 -15 18 -34z m5072 -112 c24 -9 44 -17 46 -18
1 -1 23 -73 48 -161 25 -87 63 -212 84 -277 21 -65 35 -116 32 -115 -57 31
-91 40 -134 35 -48 -6 -114 -35 -157 -69 l-25 -19 -28 93 c-15 51 -28 100 -28
110 0 9 20 34 45 56 53 46 122 68 185 57 32 -5 40 -4 40 8 0 29 -87 36 -166
12 -27 -8 -66 -29 -86 -48 l-36 -33 -31 116 c-17 64 -31 126 -31 137 0 34 43
87 90 111 53 26 94 28 152 5z m-3482 -505 c76 -23 130 -85 130 -150 0 -32 -9
-39 -208 -175 l-207 -141 -6 73 c-4 46 -16 93 -32 129 -30 65 -64 116 -78 116
-17 0 -9 -27 25 -84 39 -65 61 -164 51 -226 -7 -40 -10 -43 -201 -171 l-194
-129 0 37 c-1 91 -46 203 -109 274 -33 37 -40 41 -46 27 -5 -12 3 -30 25 -55
55 -63 84 -137 88 -229 l4 -80 -214 -139 c-250 -163 -578 -372 -803 -512
l-160 -100 -6 66 c-4 36 -16 93 -28 126 -22 62 -85 165 -101 165 -21 0 -17
-19 15 -65 40 -59 71 -146 80 -230 4 -33 11 -63 16 -66 6 -3 -113 -80 -263
-172 -332 -201 -800 -478 -803 -475 -1 2 -14 49 -28 105 -14 56 -43 140 -66
187 l-40 86 37 23 c220 137 303 187 311 187 19 0 82 -62 108 -107 14 -24 35
-75 48 -114 24 -78 41 -102 51 -76 15 39 -68 220 -130 281 l-42 43 655 405
c542 334 658 402 669 391 7 -7 17 -13 22 -13 19 0 82 -65 102 -104 15 -29 23
-66 26 -124 4 -70 7 -82 21 -80 22 5 21 115 -3 184 -20 60 -73 126 -116 144
-16 7 -30 16 -30 20 0 4 30 26 66 49 73 46 67 47 137 -18 54 -50 76 -90 91
-163 8 -42 18 -63 27 -63 20 0 13 62 -13 134 -15 39 -39 73 -80 115 -32 32
-58 60 -56 61 27 23 602 365 612 365 24 0 88 -61 104 -100 8 -19 20 -69 26
-110 9 -54 16 -75 26 -75 20 0 14 79 -12 165 -15 50 -30 75 -64 107 l-44 42
202 121 c115 69 212 120 226 120 17 0 40 -15 68 -45 40 -41 53 -69 69 -147 3
-17 12 -28 22 -28 39 0 -19 167 -74 210 -12 9 -19 20 -16 24 7 7 60 0 113 -16z
m3647 -79 c24 -12 47 -18 51 -15 3 4 17 -23 29 -60 13 -37 22 -69 20 -70 -1
-2 -21 2 -43 7 -29 8 -53 7 -83 -1 -44 -12 -111 -63 -111 -85 0 -30 23 -26 51
8 36 44 84 60 136 45 59 -16 77 -34 97 -92 l19 -55 -32 -43 c-37 -51 -99 -94
-155 -109 -39 -11 -42 -10 -69 22 -55 65 -182 363 -161 377 6 4 30 21 54 38
83 57 130 65 197 33z m-2072 -51 c66 -35 105 -105 105 -185 -1 -46 -3 -50 -64
-105 l-64 -58 -7 53 c-10 75 -50 158 -100 207 -36 36 -45 41 -51 27 -4 -11 4
-25 23 -41 52 -44 86 -121 91 -206 l4 -75 -123 -112 -124 -112 -6 52 c-16 136
-71 228 -179 298 l-24 16 145 115 c79 63 154 120 167 127 58 31 147 30 207 -1z
m-516 -283 c46 -23 127 -120 145 -171 9 -27 16 -80 16 -120 l0 -73 -177 -158
c-218 -194 -562 -493 -783 -680 l-165 -140 -15 76 c-8 42 -28 103 -44 135 -43
89 -176 213 -176 165 0 -6 25 -33 55 -61 68 -62 122 -166 131 -253 4 -33 11
-65 16 -71 5 -8 -20 -36 -77 -84 -48 -40 -87 -70 -88 -69 -2 2 -10 35 -20 74
-21 82 -57 166 -93 213 -26 33 -99 92 -116 92 -21 0 -3 -29 46 -72 61 -53 93
-113 125 -227 11 -40 25 -79 30 -85 8 -9 -44 -57 -197 -183 l-207 -170 -16 81
c-22 108 -68 196 -144 276 l-63 65 439 360 c242 198 444 362 449 363 21 7 107
-44 154 -91 32 -32 52 -45 59 -38 6 6 2 19 -12 37 -26 33 -113 100 -141 109
-11 4 -20 10 -20 14 0 10 844 701 856 701 3 0 18 -7 33 -15z m3104 -120 c318
-99 535 -173 597 -206 l35 -18 -56 -1 c-31 0 -92 5 -137 11 -45 6 -86 9 -91 7
-6 -1 52 -51 129 -111 77 -59 151 -124 164 -145 26 -39 46 -99 30 -90 -227
130 -404 228 -413 228 -41 0 16 -41 194 -141 112 -63 204 -117 205 -120 0 -4
-21 -9 -46 -13 -138 -18 -277 5 -402 68 -63 32 -82 35 -82 16 0 -4 35 -34 78
-66 83 -63 192 -162 192 -176 0 -30 -190 25 -324 95 -45 23 -118 70 -163 104
l-82 62 -5 -27 c-3 -15 -8 -88 -12 -162 l-6 -134 -63 66 c-141 149 -237 334
-279 540 -9 42 -16 94 -15 115 0 37 2 39 70 71 46 22 81 48 106 78 21 24 44
44 52 44 8 0 154 -43 324 -95z m-7902 -813 c74 -55 127 -131 209 -297 144
-294 279 -667 283 -781 2 -56 -1 -69 -13 -69 -11 0 -17 17 -21 70 -7 79 -39
191 -50 174 -4 -8 -45 -7 -148 3 -78 8 -144 18 -148 22 -4 3 -2 11 4 17 7 7
40 7 109 0 116 -12 184 -17 184 -14 0 14 -107 291 -157 408 -115 268 -192 389
-281 446 -38 25 -55 30 -89 26 -48 -5 -58 0 -41 21 21 25 108 11 159 -26z m38
-172 c68 -10 80 -15 65 -30 -7 -7 -47 -6 -120 1 -124 12 -138 15 -129 29 8 12
99 13 184 0z m119 -118 c-3 -15 -18 -17 -127 -15 -67 1 -125 4 -128 7 -3 3 -3
11 -1 18 4 10 35 12 132 10 113 -3 127 -5 124 -20z m-22 -73 c3 -6 2 -15 -4
-21 -15 -15 -204 3 -210 20 -5 16 203 18 214 1z m43 -135 c26 -23 -149 -35
-190 -13 -41 21 -8 30 89 23 54 -4 99 -8 101 -10z m2884 -142 c19 -26 41 -61
50 -77 20 -41 45 -138 49 -196 l3 -47 -135 -108 c-74 -60 -243 -193 -375 -297
l-240 -188 -7 58 c-12 87 -44 173 -93 246 -58 87 -78 128 -68 137 22 21 260
214 278 226 30 20 85 1 129 -43 30 -31 36 -34 42 -19 9 22 -38 72 -83 88 -18
7 -32 15 -31 19 2 4 86 75 187 158 l183 151 39 -30 c21 -17 53 -52 72 -78z
m-2850 43 c-2 -6 -45 -11 -98 -13 -75 -2 -95 0 -95 11 0 8 2 16 4 18 9 9 191
-6 189 -16z m84 -100 c3 -9 3 -18 0 -21 -2 -3 -57 -2 -121 2 -87 5 -116 10
-116 20 0 22 228 20 237 -1z m1344 -9 c140 -50 268 -267 455 -773 92 -250 120
-377 90 -402 -19 -16 -22 -9 -29 70 -8 82 -37 181 -51 170 -6 -5 -50 -5 -106
0 -161 14 -190 20 -190 35 0 17 24 17 183 0 64 -6 117 -11 117 -10 0 6 -74
205 -108 289 -174 436 -294 604 -426 593 -31 -2 -41 1 -41 12 0 8 11 17 25 21
36 10 41 10 81 -5z m-1328 -53 c4 -2 7 -8 7 -14 0 -12 -237 -12 -245 1 -16 27
9 32 119 25 61 -4 114 -9 119 -12z m1432 -152 c38 -5 51 -11 53 -25 4 -16 0
-18 -29 -12 -19 4 -74 9 -122 13 -48 3 -90 10 -93 15 -17 27 35 30 191 9z
m-1451 -7 c9 -3 16 -13 16 -21 0 -13 -9 -15 -52 -9 -29 3 -63 6 -75 6 -14 0
-23 6 -23 15 0 12 13 15 59 15 33 0 66 -3 75 -6z m1467 -94 c78 0 99 -3 99
-14 0 -19 -76 -27 -175 -18 -67 6 -80 10 -83 26 -4 16 0 18 28 12 18 -3 77 -6
131 -6z m-1421 -83 c66 -10 86 -17 88 -30 4 -21 13 -20 -116 -1 -113 17 -126
20 -117 35 8 12 41 11 145 -4z m1494 -7 c21 -20 -9 -27 -101 -22 -96 4 -121
11 -110 29 7 11 198 4 211 -7z m41 -140 c0 -31 -192 -23 -203 8 -3 10 21 12
100 10 84 -2 103 -6 103 -18z m33 -93 c3 -16 -5 -18 -90 -15 -79 3 -93 6 -96
21 -3 15 5 17 90 15 80 -3 93 -5 96 -21z m0 -87 c82 0 93 -2 90 -17 -3 -15
-16 -16 -113 -14 -61 1 -114 6 -119 11 -14 14 5 32 28 26 11 -3 63 -6 114 -6z
m101 -74 c25 -16 -4 -26 -73 -26 -108 0 -166 10 -166 28 0 13 17 14 114 10 62
-3 119 -8 125 -12z m-5 -166 c21 -20 -8 -29 -72 -23 -63 6 -87 17 -76 35 6 9
136 -2 148 -12z m26 -170 c87 -13 112 -23 95 -39 -11 -10 -215 16 -229 29 -14
14 5 32 28 26 11 -2 59 -10 106 -16z"/>
<path d="M10670 7740 c-35 -35 -24 -73 25 -84 40 -9 68 12 68 49 0 51 -56 72
-93 35z m55 -35 c0 -22 -14 -28 -34 -16 -12 8 -13 12 -1 26 16 20 35 14 35
-10z"/>
<path d="M9826 7444 c-9 -8 -16 -26 -16 -39 0 -13 7 -31 16 -39 33 -34 94 -9
94 38 0 47 -62 73 -94 40z m62 -37 c4 -20 -25 -34 -40 -19 -15 15 -1 44 19 40
10 -2 19 -11 21 -21z"/>
<path d="M8875 7424 c-22 -2 -92 -9 -155 -15 -125 -11 -354 -51 -437 -74 l-51
-15 -50 -153 c-122 -369 -194 -764 -208 -1132 -11 -286 -94 -576 -188 -654
-24 -20 -19 -41 9 -41 37 0 92 -25 107 -49 18 -30 28 -27 80 27 61 62 101 150
133 291 48 209 65 261 89 261 12 0 211 3 444 6 384 6 429 5 487 -11 l65 -17 0
-117 c0 -173 30 -268 112 -357 60 -65 130 -96 209 -92 56 3 64 5 65 23 0 11 3
27 6 35 3 8 11 33 17 55 6 22 22 52 36 68 31 33 27 43 -22 52 -53 10 -106 39
-136 75 -32 37 -42 85 -39 178 2 41 3 42 35 42 19 0 59 -5 90 -11 51 -11 58
-15 92 -64 38 -56 137 -155 154 -155 6 0 17 15 26 34 15 31 64 66 94 66 6 0
11 7 11 16 0 19 -32 12 -72 -17 l-26 -18 -42 40 c-22 22 -54 61 -71 87 -27 43
-28 47 -11 53 42 16 155 278 211 491 64 238 138 676 143 841 l3 98 -70 21
c-179 53 -386 95 -590 118 -95 11 -482 21 -550 14z m515 -45 c146 -13 362 -52
510 -92 l125 -33 -2 -104 c-4 -194 -68 -556 -142 -810 -58 -199 -158 -470
-172 -470 -12 0 -20 46 -29 184 -10 160 -32 221 -101 280 -72 61 -187 73 -251
26 l-30 -22 -77 22 c-43 13 -115 25 -168 28 -77 4 -93 8 -93 21 0 35 -94 202
-136 241 -96 88 -214 77 -361 -34 -102 -77 -253 -267 -326 -411 -14 -27 -37
-61 -51 -74 l-26 -24 0 24 c0 112 57 465 110 684 37 152 130 454 149 484 16
25 319 76 543 91 145 9 363 5 528 -11z"/>
<path d="M8867 7174 c-3 -4 6 -30 20 -58 15 -28 34 -76 43 -106 16 -51 40 -79
40 -47 0 20 -34 116 -59 164 -22 44 -34 56 -44 47z"/>
<path d="M9777 7114 c-8 -8 1 -24 14 -24 5 0 9 7 9 15 0 15 -12 20 -23 9z"/>
<path d="M9132 7046 c-50 -54 -76 -102 -61 -111 6 -4 11 -5 13 -4 1 2 12 20
24 39 11 19 34 48 51 64 30 29 41 56 22 56 -5 0 -27 -20 -49 -44z"/>
<path d="M8410 7068 c1 -17 46 -68 60 -68 16 0 12 25 -11 54 -21 27 -49 35
-49 14z"/>
<path d="M8510 7051 c-14 -27 -13 -41 3 -41 15 0 39 44 30 54 -11 11 -22 6
-33 -13z"/>
<path d="M8997 7023 c-4 -3 -7 -24 -7 -45 0 -53 21 -45 26 10 4 39 -3 51 -19
35z"/>
<path d="M8387 7013 c-9 -9 43 -63 60 -63 20 0 15 24 -10 48 -24 23 -39 27
-50 15z"/>
<path d="M9187 6984 c-49 -25 -58 -51 -12 -34 47 18 85 40 85 50 0 16 -21 11
-73 -16z"/>
<path d="M9627 6923 c-3 -15 -1 -32 4 -37 12 -13 17 -6 21 28 4 38 -18 45 -25
9z"/>
<path d="M9520 6913 c0 -16 4 -35 10 -43 8 -12 10 -12 16 3 8 21 -3 67 -16 67
-6 0 -10 -12 -10 -27z"/>
<path d="M9715 6824 c-38 -19 -61 -42 -52 -50 7 -8 117 47 117 59 0 12 -33 8
-65 -9z"/>
<path d="M9470 6722 c-37 -36 -51 -62 -32 -62 10 0 102 85 102 94 0 17 -34 2
-70 -32z"/>
<path d="M9870 6740 c0 -5 7 -10 15 -10 8 0 15 5 15 10 0 6 -7 10 -15 10 -8 0
-15 -4 -15 -10z"/>
<path d="M9665 6703 c4 -10 10 -26 12 -35 6 -19 33 -25 33 -8 0 5 -5 21 -12
35 -13 29 -45 36 -33 8z"/>
<path d="M9544 6686 c-8 -35 -1 -71 15 -71 9 0 14 15 15 48 2 51 -19 67 -30
23z"/>
<path d="M9725 6530 c-3 -6 1 -13 10 -16 19 -8 30 0 20 15 -8 14 -22 14 -30 1z"/>
<path d="M9972 7408 c-33 -33 6 -102 54 -96 25 3 29 7 32 40 2 28 -2 40 -20
52 -27 19 -50 20 -66 4z m58 -54 c0 -8 -4 -14 -10 -14 -12 0 -31 35 -23 44 9
8 33 -14 33 -30z"/>
<path d="M7768 5894 c-16 -8 -28 -19 -28 -24 0 -18 28 -10 57 15 32 28 15 33
-29 9z"/>
<path d="M7808 5845 c-15 -24 -23 -47 -18 -50 11 -7 72 74 64 86 -10 16 -19 9
-46 -36z"/>
<path d="M8555 5849 c-104 -3 -220 -7 -257 -8 -56 -1 -68 -4 -68 -17 0 -15 15
-16 158 -11 86 4 268 10 405 13 197 6 247 10 247 21 0 15 -131 15 -485 2z"/>
<path d="M9890 5626 c0 -4 59 -36 67 -36 11 0 0 29 -13 34 -18 7 -54 8 -54 2z"/>
<path d="M9890 5560 c0 -28 16 -50 37 -50 19 0 16 11 -12 45 l-25 30 0 -25z"/>
<path d="M9768 5498 c-31 -7 -48 -15 -48 -25 0 -12 10 -14 53 -8 28 4 56 11
61 15 9 9 0 31 -12 29 -4 -1 -28 -6 -54 -11z"/>
<path d="M9670 5395 c0 -8 8 -15 19 -15 10 0 30 -9 45 -21 25 -19 46 -19 46 2
0 14 -62 49 -87 49 -14 0 -23 -6 -23 -15z"/>
<path d="M9647 5334 c-9 -10 26 -94 40 -94 17 0 16 22 -1 65 -14 33 -26 42
-39 29z"/>
<path d="M7792 5308 c-14 -14 -16 -38 -4 -38 12 0 32 23 32 37 0 16 -12 17
-28 1z"/>
<path d="M7830 5282 c0 -21 26 -60 34 -51 8 8 -14 69 -25 69 -5 0 -9 -8 -9
-18z"/>
<path d="M7691 5249 c-28 -28 -42 -69 -23 -69 10 0 72 76 72 89 0 19 -18 12
-49 -20z"/>
<path d="M9730 5247 c0 -8 11 -24 24 -36 32 -30 46 -8 15 25 -25 27 -39 31
-39 11z"/>
<path d="M9605 5228 c3 -13 9 -33 12 -45 3 -13 9 -23 14 -23 12 0 11 47 -1 71
-15 27 -34 24 -25 -3z"/>
<path d="M7820 5166 c0 -23 30 -86 40 -86 13 0 13 29 -1 69 -11 31 -39 44 -39
17z"/>
<path d="M7956 5172 c-7 -12 45 -82 61 -82 20 0 16 19 -13 57 -25 33 -38 40
-48 25z"/>
<path d="M7966 4762 c-11 -18 -40 -181 -33 -188 4 -4 9 -5 11 -3 10 10 43 190
36 194 -5 3 -11 2 -14 -3z"/>
<path d="M7885 4748 c-7 -22 -25 -118 -25 -133 0 -8 4 -15 9 -15 7 0 41 124
41 151 0 14 -20 11 -25 -3z"/>
<path d="M8031 4685 c-11 -36 -21 -72 -21 -80 0 -18 19 -20 24 -2 7 26 38 123
43 135 2 6 -2 12 -10 12 -9 0 -22 -25 -36 -65z"/>
<path d="M9669 4449 c-14 -14 -19 -30 -17 -52 3 -28 8 -33 41 -42 51 -12 91 8
95 49 7 60 -73 91 -119 45z m91 -18 c21 -40 -17 -69 -66 -51 -28 11 -30 26 -7
52 21 24 60 23 73 -1z"/>
<path d="M7445 6000 c-4 -6 7 -23 22 -38 16 -15 34 -36 40 -46 10 -18 33 -15
33 5 0 12 -70 89 -81 89 -4 0 -11 -5 -14 -10z"/>
<path d="M6047 4533 c-14 -13 -6 -21 33 -37 68 -27 200 -18 200 14 0 4 -33 6
-72 3 -55 -4 -83 -1 -112 11 -45 19 -41 18 -49 9z"/>
<path d="M6240 3077 c0 -7 12 -24 26 -38 40 -37 75 -115 82 -183 5 -45 11 -61
22 -61 42 0 4 159 -58 240 -37 49 -72 70 -72 42z"/>
<path d="M5610 2739 c0 -6 16 -27 34 -47 47 -49 84 -124 100 -203 9 -45 18
-65 29 -67 21 -4 21 2 1 88 -16 70 -65 163 -112 213 -26 27 -52 36 -52 16z"/>
<path d="M5310 2546 c0 -8 14 -24 30 -36 43 -31 87 -113 106 -197 10 -48 21
-73 30 -73 18 0 18 34 -2 101 -25 82 -58 141 -103 182 -44 39 -61 46 -61 23z"/>
<path d="M9185 3780 c-4 -6 8 -27 26 -47 54 -62 82 -135 83 -219 1 -74 10
-100 26 -74 16 25 11 128 -9 186 -30 85 -109 181 -126 154z"/>
<path d="M8785 3420 c-4 -6 10 -29 30 -52 49 -54 74 -113 82 -193 4 -48 10
-65 21 -65 11 0 13 13 10 68 -4 77 -37 158 -88 215 -34 39 -45 44 -55 27z"/>
<path d="M8606 3311 c-3 -5 10 -19 30 -32 65 -44 90 -96 132 -273 4 -16 13
-31 20 -34 32 -10 -5 161 -53 244 -41 69 -112 123 -129 95z"/>
<path d="M8300 3101 c0 -5 23 -24 51 -41 59 -39 94 -81 119 -147 20 -54 40
-68 40 -29 0 28 -38 107 -67 142 -47 54 -143 104 -143 75z"/>
<path d="M7976 2742 c-3 -5 8 -26 24 -47 37 -46 76 -128 89 -185 11 -52 27
-71 37 -45 11 28 -33 149 -79 217 -42 62 -60 77 -71 60z"/>
<path d="M7350 2214 c0 -3 15 -24 34 -46 47 -54 73 -112 81 -181 5 -41 12 -57
22 -57 25 0 12 106 -20 171 -28 59 -81 119 -103 119 -8 0 -14 -3 -14 -6z"/>
<path d="M6590 1669 c0 -6 23 -31 50 -56 54 -49 81 -92 99 -161 8 -27 17 -42
28 -42 21 0 13 53 -19 118 -39 80 -158 186 -158 141z"/>
<path d="M12351 7467 c-18 -22 -41 -85 -41 -112 0 -43 27 -30 33 16 3 23 14
51 25 62 19 18 21 18 55 2 36 -17 78 -68 96 -117 12 -33 37 -37 46 -8 9 29 63
80 85 80 29 0 65 -52 95 -137 32 -89 40 -102 55 -87 8 8 4 30 -13 75 -74 196
-116 227 -201 149 l-44 -41 -26 45 c-14 25 -39 54 -55 65 -33 24 -93 28 -110
8z"/>
<path d="M4788 6974 c-36 -19 -54 -55 -62 -124 -7 -61 12 -140 43 -177 50 -59
130 -88 186 -67 20 8 45 56 45 87 0 14 7 42 16 63 30 71 -2 162 -75 211 -40
27 -111 30 -153 7z m132 -29 c32 -17 65 -65 75 -113 8 -38 -23 -97 -56 -107
-38 -12 -86 4 -117 40 -38 42 -61 137 -41 162 29 34 92 42 139 18z"/>
<path d="M4837 6913 c-17 -16 -6 -75 18 -98 38 -39 95 -29 95 17 0 23 -19 23
-36 1 -13 -17 -15 -17 -34 6 -11 13 -20 36 -20 52 0 28 -9 37 -23 22z"/>
<path d="M11635 6720 c-3 -5 17 -37 45 -72 64 -79 120 -174 154 -261 30 -76
66 -208 66 -243 0 -33 10 -54 26 -54 17 0 13 38 -16 165 -33 146 -117 310
-218 432 -37 44 -47 50 -57 33z"/>
<path d="M6338 6592 c-15 -4 -57 -40 -97 -84 l-71 -76 23 -94 c12 -51 29 -102
37 -114 8 -11 64 -55 123 -97 l109 -78 116 13 117 12 41 42 c52 52 82 96 68
101 -7 2 -7 19 -1 51 25 123 -66 237 -243 303 -58 22 -176 33 -222 21z m237
-63 c104 -43 170 -104 191 -176 14 -50 14 -59 0 -103 -9 -27 -16 -55 -16 -63
0 -8 -10 -22 -21 -33 l-21 -19 7 33 c6 29 5 33 -11 30 -14 -2 -21 -17 -28 -51
-6 -35 -13 -47 -26 -47 -9 0 -45 -3 -79 -7 l-63 -6 16 38 c20 46 20 65 2 65
-8 0 -21 -21 -31 -50 -9 -27 -21 -50 -26 -50 -5 0 -53 32 -108 71 l-100 72 40
72 c41 76 47 95 27 95 -7 0 -29 -30 -49 -66 l-36 -66 -17 66 c-9 36 -16 71
-16 79 0 22 123 145 150 151 53 10 143 -5 215 -35z"/>
<path d="M6400 6543 c-114 -21 -71 -186 65 -249 57 -27 101 -30 150 -10 42 18
55 42 55 100 0 57 -32 97 -111 137 -56 28 -95 33 -159 22z"/>
<path d="M6020 5730 c-24 -24 -27 -60 -5 -60 8 0 15 6 15 14 0 8 9 22 21 30
12 8 18 19 14 25 -9 16 -23 13 -45 -9z"/>
<path d="M6050 5603 c0 -19 16 -24 59 -17 62 10 55 35 -9 32 -32 -2 -50 -7
-50 -15z"/>
<path d="M5871 5581 c-11 -11 -23 -37 -26 -58 -9 -56 -32 -103 -52 -104 -10
-1 -38 -1 -63 0 -78 4 -115 -33 -180 -180 -18 -41 -43 -48 -67 -20 -23 27 -28
26 -42 -7 -14 -34 -2 -76 28 -91 60 -33 136 12 167 99 10 27 28 62 40 77 21
27 26 28 95 25 63 -2 75 0 96 20 12 12 23 31 23 44 0 12 20 48 45 80 50 64 54
85 25 114 -25 25 -64 26 -89 1z m68 -25 c15 -18 4 -40 -38 -79 -20 -19 -33
-42 -37 -68 -8 -51 -30 -62 -98 -54 -75 10 -107 -9 -141 -82 -41 -92 -51 -107
-80 -121 -26 -14 -75 -9 -75 6 0 5 13 7 29 4 38 -5 71 27 96 93 38 103 78 135
169 135 47 0 57 4 75 25 11 14 24 49 31 77 15 74 41 98 69 64z"/>
<path d="M11948 5392 c-15 -10 -42 -38 -62 -62 -19 -25 -54 -59 -77 -75 -30
-21 -46 -42 -52 -65 -12 -48 -21 -56 -72 -69 -28 -7 -51 -20 -61 -35 -20 -32
-15 -80 10 -84 15 -3 18 0 13 20 -10 38 16 66 65 70 45 3 60 21 73 81 3 16 21
38 45 56 22 15 58 52 81 80 22 29 54 57 70 63 32 11 40 38 12 38 -10 0 -30 -8
-45 -18z"/>
<path d="M13092 5389 c-59 -29 -93 -90 -93 -163 0 -87 48 -152 131 -177 120
-36 242 92 210 219 -15 62 -45 101 -94 123 -54 24 -101 24 -154 -2z"/>
<path d="M12119 5337 c-25 -23 -74 -62 -110 -88 -47 -33 -71 -59 -90 -94 -20
-40 -31 -51 -57 -56 -43 -9 -66 -31 -80 -78 -16 -51 -15 -81 2 -81 9 0 17 15
21 40 9 54 38 88 78 92 26 2 36 11 55 48 31 59 44 73 122 127 80 56 130 103
130 120 0 23 -24 13 -71 -30z"/>
<path d="M12727 5315 c-45 -16 -83 -48 -105 -90 -22 -44 -26 -229 -5 -273 17
-36 58 -62 97 -62 27 0 82 41 91 69 3 10 24 27 47 37 55 25 98 91 98 151 0
118 -117 206 -223 168z"/>
<path d="M5351 5154 c-23 -29 -26 -40 -12 -48 10 -7 71 50 71 65 0 19 -39 8
-59 -17z"/>
<path d="M5394 5055 c-7 -40 2 -73 16 -59 5 5 12 28 16 52 5 34 4 42 -9 42
-10 0 -18 -12 -23 -35z"/>
<path d="M12984 4821 c-84 -52 -46 -181 54 -181 97 0 145 92 85 160 -37 41
-94 50 -139 21z"/>
<path d="M12353 4774 c-20 -20 -24 -31 -19 -57 12 -63 80 -92 155 -66 59 21
69 82 20 123 -43 37 -119 37 -156 0z m135 -24 c25 -24 25 -25 12 -50 -20 -37
-101 -33 -126 6 -35 52 64 90 114 44z"/>
<path d="M3570 4468 c0 -65 12 -101 28 -83 4 6 6 40 4 78 -3 49 -7 67 -18 67
-11 0 -14 -15 -14 -62z"/>
<path d="M3487 4424 c-13 -13 -7 -32 19 -63 26 -32 54 -41 54 -18 0 7 -8 19
-17 28 -10 8 -25 25 -33 38 -8 12 -18 19 -23 15z"/>
<path d="M3659 4370 c-26 -25 -30 -36 -27 -72 3 -39 6 -43 38 -52 56 -16 135
-101 154 -165 9 -30 16 -62 16 -71 0 -19 39 -40 73 -40 13 0 33 7 46 16 22 16
23 22 19 88 -8 121 -72 234 -166 295 -65 41 -113 42 -153 1z m58 -16 c-15 -8
-34 -29 -41 -47 -14 -31 -14 -31 -15 -6 -1 25 19 51 49 62 30 11 34 6 7 -9z
m71 -8 c15 -8 38 -26 51 -40 l24 -26 -27 0 c-15 0 -37 -10 -51 -24 l-23 -23
-31 19 c-38 24 -38 32 -6 64 14 14 25 29 25 34 0 13 6 13 38 -4z m122 -136
c26 -51 25 -60 -6 -60 -14 0 -33 -4 -43 -10 -15 -7 -23 -2 -45 32 -25 38 -26
42 -10 59 15 17 60 29 77 21 4 -2 16 -21 27 -42z m41 -143 c5 -45 3 -50 -19
-58 -37 -14 -59 -2 -66 36 -10 50 8 77 47 73 30 -3 32 -6 38 -51z"/>
<path d="M3920 3930 c0 -49 61 -123 82 -102 9 9 7 16 -9 27 -11 8 -28 33 -37
55 -17 43 -36 53 -36 20z"/>
<path d="M3849 3913 c-18 -47 5 -153 33 -153 7 0 8 12 3 38 -5 20 -8 61 -7 90
2 57 -12 68 -29 25z"/>
<path d="M10727 3858 c-22 -129 -16 -269 18 -403 15 -59 89 -222 117 -259 8
-10 20 -16 26 -13 6 5 -10 46 -43 112 -85 166 -114 336 -92 528 6 55 5 67 -7
67 -8 0 -16 -14 -19 -32z"/>
<path d="M12679 3839 c-65 -42 -129 -97 -129 -111 0 -18 26 -6 79 35 31 24 73
53 94 66 20 12 37 26 37 31 0 22 -23 16 -81 -21z"/>
<path d="M12780 3744 c-71 -19 -160 -60 -160 -73 0 -16 17 -13 84 13 34 14 92
31 130 38 78 16 101 38 39 37 -21 0 -63 -7 -93 -15z"/>
<path d="M12792 3568 c3 -9 40 -14 126 -16 104 -2 122 0 122 13 0 13 -20 15
-126 15 -96 0 -125 -3 -122 -12z"/>
<path d="M11072 3207 c3 -40 14 -67 42 -110 48 -71 173 -207 192 -207 26 0 14
20 -47 83 -99 100 -151 181 -157 238 -3 35 -9 49 -20 49 -11 0 -14 -11 -10
-53z"/>
<path d="M9726 3070 c-65 -20 -105 -93 -87 -158 9 -31 7 -34 -97 -133 l-107
-102 -66 -1 c-55 -1 -72 -6 -107 -30 -23 -16 -51 -43 -62 -61 -23 -37 -26 -90
-6 -102 7 -4 17 -21 23 -38 9 -29 12 -30 75 -31 89 -2 125 -21 141 -75 4 -13
15 -14 58 -9 46 6 58 13 91 50 42 47 68 119 68 190 0 44 3 48 83 128 71 71 87
82 117 82 19 0 49 9 67 20 63 38 82 98 59 185 -20 77 -32 88 -58 52 -21 -29
-66 -57 -92 -57 -11 0 -16 13 -18 48 -3 42 -6 47 -28 49 -14 1 -38 -2 -54 -7z
m19 -60 c14 -62 85 -78 150 -35 20 15 39 24 42 21 10 -10 -9 -65 -31 -85 -12
-11 -43 -25 -68 -29 -56 -11 -123 -64 -219 -176 -67 -79 -68 -80 -62 -127 4
-38 1 -55 -16 -82 -18 -29 -76 -68 -84 -56 -1 2 -10 21 -20 42 -33 72 -138 95
-202 45 -25 -19 -25 -19 -25 1 0 44 97 121 152 121 13 0 36 -7 52 -15 34 -18
36 -18 36 -2 0 6 55 64 122 129 100 94 121 119 111 129 -23 23 -16 84 13 118
32 39 41 39 49 1z"/>
<path d="M10021 2047 c-51 -21 -54 -25 -75 -82 -17 -48 -21 -76 -18 -138 5
-90 7 -92 97 -102 58 -6 63 -4 150 43 l90 49 9 73 c5 49 5 85 -3 110 -10 36
-15 38 -76 54 -83 21 -109 20 -174 -7z m181 -27 c32 -9 38 -16 44 -46 3 -19 5
-36 3 -38 -14 -12 -174 -76 -190 -76 -23 0 -99 37 -98 48 0 4 8 27 17 51 28
71 109 94 224 61z m38 -152 c0 -23 -37 -51 -118 -92 l-33 -17 3 37 c3 36 6 39
68 65 79 34 80 34 80 7z m-226 -28 c35 -16 46 -26 46 -43 0 -37 -12 -45 -55
-38 -40 6 -40 7 -43 54 -2 26 -1 47 1 47 3 0 25 -9 51 -20z"/>
<path d="M10062 1993 c-22 -9 -34 -41 -22 -63 8 -15 21 -20 50 -20 59 0 100
46 68 78 -12 12 -71 15 -96 5z m68 -32 c0 -6 -5 -13 -10 -16 -14 -9 -52 4 -45
16 8 12 55 12 55 0z"/>
</g>
</svg>
